<mxfile host="app.diagrams.net" agent="Mozilla/5.0 (Macintosh; Intel Mac OS X 10_15_7) AppleWebKit/537.36 (KHTML, like Gecko) Chrome/132.0.0.0 Safari/537.36" version="26.0.10">
  <diagram id="C5RBs43oDa-KdzZeNtuy" name="Page-1">
    <mxGraphModel dx="1249" dy="573" grid="1" gridSize="10" guides="1" tooltips="1" connect="1" arrows="1" fold="1" page="1" pageScale="1" pageWidth="827" pageHeight="1169" math="0" shadow="0">
      <root>
        <mxCell id="WIyWlLk6GJQsqaUBKTNV-0" />
        <mxCell id="WIyWlLk6GJQsqaUBKTNV-1" parent="WIyWlLk6GJQsqaUBKTNV-0" />
        <mxCell id="zkfFHV4jXpPFQw0GAbJ--0" value="Builder&#xa;&lt;&lt;interface&gt;&gt;" style="swimlane;fontStyle=2;align=center;verticalAlign=top;childLayout=stackLayout;horizontal=1;startSize=40;horizontalStack=0;resizeParent=1;resizeLast=0;collapsible=1;marginBottom=0;rounded=0;shadow=0;strokeWidth=1;" parent="WIyWlLk6GJQsqaUBKTNV-1" vertex="1">
          <mxGeometry x="360" y="640" width="160" height="80" as="geometry">
            <mxRectangle x="230" y="140" width="160" height="26" as="alternateBounds" />
          </mxGeometry>
        </mxCell>
        <mxCell id="zkfFHV4jXpPFQw0GAbJ--4" value="" style="line;html=1;strokeWidth=1;align=left;verticalAlign=middle;spacingTop=-1;spacingLeft=3;spacingRight=3;rotatable=0;labelPosition=right;points=[];portConstraint=eastwest;" parent="zkfFHV4jXpPFQw0GAbJ--0" vertex="1">
          <mxGeometry y="40" width="160" height="8" as="geometry" />
        </mxCell>
        <mxCell id="eB5_OxAdnuvk4AYDPjgx-0" value="# build()" style="text;html=1;align=center;verticalAlign=middle;resizable=0;points=[];autosize=1;strokeColor=none;fillColor=none;" vertex="1" parent="zkfFHV4jXpPFQw0GAbJ--0">
          <mxGeometry y="48" width="160" height="30" as="geometry" />
        </mxCell>
        <mxCell id="zkfFHV4jXpPFQw0GAbJ--6" value="CottageFactory&#xa;&lt;&lt;interface&gt;&gt;" style="swimlane;fontStyle=2;align=center;verticalAlign=top;childLayout=stackLayout;horizontal=1;startSize=40;horizontalStack=0;resizeParent=1;resizeLast=0;collapsible=1;marginBottom=0;rounded=0;shadow=0;strokeWidth=1;" parent="WIyWlLk6GJQsqaUBKTNV-1" vertex="1">
          <mxGeometry x="90" y="640" width="160" height="132" as="geometry">
            <mxRectangle x="130" y="380" width="160" height="26" as="alternateBounds" />
          </mxGeometry>
        </mxCell>
        <mxCell id="zkfFHV4jXpPFQw0GAbJ--10" value="+ build()" style="text;align=left;verticalAlign=top;spacingLeft=4;spacingRight=4;overflow=hidden;rotatable=0;points=[[0,0.5],[1,0.5]];portConstraint=eastwest;fontStyle=0" parent="zkfFHV4jXpPFQw0GAbJ--6" vertex="1">
          <mxGeometry y="40" width="160" height="26" as="geometry" />
        </mxCell>
        <mxCell id="zkfFHV4jXpPFQw0GAbJ--11" value="- setAC()" style="text;align=left;verticalAlign=top;spacingLeft=4;spacingRight=4;overflow=hidden;rotatable=0;points=[[0,0.5],[1,0.5]];portConstraint=eastwest;" parent="zkfFHV4jXpPFQw0GAbJ--6" vertex="1">
          <mxGeometry y="66" width="160" height="26" as="geometry" />
        </mxCell>
        <mxCell id="eB5_OxAdnuvk4AYDPjgx-17" value="- setPackages(int Kids,&#xa;int Adults)" style="text;align=left;verticalAlign=top;spacingLeft=4;spacingRight=4;overflow=hidden;rotatable=0;points=[[0,0.5],[1,0.5]];portConstraint=eastwest;" vertex="1" parent="zkfFHV4jXpPFQw0GAbJ--6">
          <mxGeometry y="92" width="160" height="40" as="geometry" />
        </mxCell>
        <mxCell id="zkfFHV4jXpPFQw0GAbJ--12" value="" style="endArrow=block;endSize=10;endFill=0;shadow=0;strokeWidth=1;rounded=0;curved=0;edgeStyle=elbowEdgeStyle;elbow=vertical;dashed=1;" parent="WIyWlLk6GJQsqaUBKTNV-1" source="zkfFHV4jXpPFQw0GAbJ--6" target="zkfFHV4jXpPFQw0GAbJ--0" edge="1">
          <mxGeometry width="160" relative="1" as="geometry">
            <mxPoint x="200" y="833" as="sourcePoint" />
            <mxPoint x="200" y="833" as="targetPoint" />
          </mxGeometry>
        </mxCell>
        <mxCell id="eB5_OxAdnuvk4AYDPjgx-105" style="edgeStyle=orthogonalEdgeStyle;rounded=0;orthogonalLoop=1;jettySize=auto;html=1;entryX=0;entryY=0.5;entryDx=0;entryDy=0;endArrow=open;endFill=0;" edge="1" parent="WIyWlLk6GJQsqaUBKTNV-1" source="zkfFHV4jXpPFQw0GAbJ--13" target="eB5_OxAdnuvk4AYDPjgx-102">
          <mxGeometry relative="1" as="geometry" />
        </mxCell>
        <mxCell id="zkfFHV4jXpPFQw0GAbJ--13" value="ReservationBuilder" style="swimlane;fontStyle=0;align=center;verticalAlign=top;childLayout=stackLayout;horizontal=1;startSize=30;horizontalStack=0;resizeParent=1;resizeLast=0;collapsible=1;marginBottom=0;rounded=0;shadow=0;strokeWidth=1;swimlaneLine=1;spacing=2;" parent="WIyWlLk6GJQsqaUBKTNV-1" vertex="1">
          <mxGeometry x="667" y="450" width="160" height="224" as="geometry">
            <mxRectangle x="630" y="-110" width="170" height="26" as="alternateBounds" />
          </mxGeometry>
        </mxCell>
        <mxCell id="eB5_OxAdnuvk4AYDPjgx-2" value="- int Kids&lt;div&gt;- int Adults&lt;/div&gt;&lt;div&gt;- Rentable cottage&lt;/div&gt;&lt;div&gt;- int Price&lt;/div&gt;" style="text;html=1;align=center;verticalAlign=middle;resizable=0;points=[];autosize=1;strokeColor=none;fillColor=none;" vertex="1" parent="zkfFHV4jXpPFQw0GAbJ--13">
          <mxGeometry y="30" width="160" height="70" as="geometry" />
        </mxCell>
        <mxCell id="zkfFHV4jXpPFQw0GAbJ--15" value="" style="line;html=1;strokeWidth=1;align=left;verticalAlign=middle;spacingTop=-1;spacingLeft=3;spacingRight=3;rotatable=0;labelPosition=right;points=[];portConstraint=eastwest;" parent="zkfFHV4jXpPFQw0GAbJ--13" vertex="1">
          <mxGeometry y="100" width="160" height="34" as="geometry" />
        </mxCell>
        <mxCell id="eB5_OxAdnuvk4AYDPjgx-1" value="+ build ()&lt;div&gt;- setKids ()&lt;/div&gt;&lt;div&gt;- setAdults()&lt;/div&gt;&lt;div&gt;- setCottage()&lt;/div&gt;&lt;div&gt;- setPrice()&lt;/div&gt;" style="text;html=1;align=center;verticalAlign=middle;resizable=0;points=[];autosize=1;strokeColor=none;fillColor=none;" vertex="1" parent="zkfFHV4jXpPFQw0GAbJ--13">
          <mxGeometry y="134" width="160" height="90" as="geometry" />
        </mxCell>
        <mxCell id="zkfFHV4jXpPFQw0GAbJ--16" value="" style="endArrow=block;endSize=10;endFill=0;shadow=0;strokeWidth=1;rounded=0;curved=0;edgeStyle=elbowEdgeStyle;elbow=vertical;dashed=1;" parent="WIyWlLk6GJQsqaUBKTNV-1" source="zkfFHV4jXpPFQw0GAbJ--13" target="zkfFHV4jXpPFQw0GAbJ--0" edge="1">
          <mxGeometry width="160" relative="1" as="geometry">
            <mxPoint x="210" y="1003" as="sourcePoint" />
            <mxPoint x="310" y="901" as="targetPoint" />
          </mxGeometry>
        </mxCell>
        <mxCell id="eB5_OxAdnuvk4AYDPjgx-16" style="edgeStyle=orthogonalEdgeStyle;rounded=0;orthogonalLoop=1;jettySize=auto;html=1;endArrow=block;endFill=0;" edge="1" parent="WIyWlLk6GJQsqaUBKTNV-1" source="eB5_OxAdnuvk4AYDPjgx-7" target="zkfFHV4jXpPFQw0GAbJ--6">
          <mxGeometry relative="1" as="geometry" />
        </mxCell>
        <mxCell id="eB5_OxAdnuvk4AYDPjgx-95" style="edgeStyle=orthogonalEdgeStyle;rounded=0;orthogonalLoop=1;jettySize=auto;html=1;exitX=1;exitY=0.5;exitDx=0;exitDy=0;endArrow=openThin;endFill=0;" edge="1" parent="WIyWlLk6GJQsqaUBKTNV-1" source="eB5_OxAdnuvk4AYDPjgx-9">
          <mxGeometry relative="1" as="geometry">
            <mxPoint x="710" y="990" as="targetPoint" />
            <Array as="points">
              <mxPoint x="370" y="883" />
              <mxPoint x="370" y="960" />
              <mxPoint x="620" y="960" />
              <mxPoint x="620" y="990" />
            </Array>
          </mxGeometry>
        </mxCell>
        <mxCell id="eB5_OxAdnuvk4AYDPjgx-7" value="PremiumCottageCreator" style="swimlane;fontStyle=0;align=center;verticalAlign=top;childLayout=stackLayout;horizontal=1;startSize=24;horizontalStack=0;resizeParent=1;resizeLast=0;collapsible=1;marginBottom=0;rounded=0;shadow=0;strokeWidth=1;" vertex="1" parent="WIyWlLk6GJQsqaUBKTNV-1">
          <mxGeometry x="190" y="846" width="160" height="150" as="geometry">
            <mxRectangle x="130" y="380" width="160" height="26" as="alternateBounds" />
          </mxGeometry>
        </mxCell>
        <mxCell id="eB5_OxAdnuvk4AYDPjgx-9" value="+ build() : PremiumCottage" style="text;align=left;verticalAlign=top;spacingLeft=4;spacingRight=4;overflow=hidden;rotatable=0;points=[[0,0.5],[1,0.5]];portConstraint=eastwest;fontStyle=0" vertex="1" parent="eB5_OxAdnuvk4AYDPjgx-7">
          <mxGeometry y="24" width="160" height="26" as="geometry" />
        </mxCell>
        <mxCell id="eB5_OxAdnuvk4AYDPjgx-10" value="- setTV()&#xa;- setFridge()&#xa;- setPackages(int Kids,&#xa;int Adults)&#xa;- setAC()" style="text;align=left;verticalAlign=top;spacingLeft=4;spacingRight=4;overflow=hidden;rotatable=0;points=[[0,0.5],[1,0.5]];portConstraint=eastwest;" vertex="1" parent="eB5_OxAdnuvk4AYDPjgx-7">
          <mxGeometry y="50" width="160" height="100" as="geometry" />
        </mxCell>
        <mxCell id="eB5_OxAdnuvk4AYDPjgx-19" style="edgeStyle=orthogonalEdgeStyle;rounded=0;orthogonalLoop=1;jettySize=auto;html=1;endArrow=block;endFill=0;entryX=0.5;entryY=1;entryDx=0;entryDy=0;" edge="1" parent="WIyWlLk6GJQsqaUBKTNV-1" source="eB5_OxAdnuvk4AYDPjgx-11" target="zkfFHV4jXpPFQw0GAbJ--6">
          <mxGeometry relative="1" as="geometry">
            <mxPoint x="150" y="800" as="targetPoint" />
          </mxGeometry>
        </mxCell>
        <mxCell id="eB5_OxAdnuvk4AYDPjgx-96" style="edgeStyle=orthogonalEdgeStyle;rounded=0;orthogonalLoop=1;jettySize=auto;html=1;entryX=0;entryY=0.5;entryDx=0;entryDy=0;endArrow=open;endFill=0;" edge="1" parent="WIyWlLk6GJQsqaUBKTNV-1" source="eB5_OxAdnuvk4AYDPjgx-11" target="eB5_OxAdnuvk4AYDPjgx-84">
          <mxGeometry relative="1" as="geometry" />
        </mxCell>
        <mxCell id="eB5_OxAdnuvk4AYDPjgx-11" value="BasicCottageCreator&#xa;" style="swimlane;fontStyle=0;align=center;verticalAlign=top;childLayout=stackLayout;horizontal=1;startSize=24;horizontalStack=0;resizeParent=1;resizeLast=0;collapsible=1;marginBottom=0;rounded=0;shadow=0;strokeWidth=1;" vertex="1" parent="WIyWlLk6GJQsqaUBKTNV-1">
          <mxGeometry y="846" width="160" height="104" as="geometry">
            <mxRectangle x="130" y="380" width="160" height="26" as="alternateBounds" />
          </mxGeometry>
        </mxCell>
        <mxCell id="eB5_OxAdnuvk4AYDPjgx-92" value="+ build() : BasicCottage&lt;div&gt;&amp;nbsp;&lt;span style=&quot;text-align: left; background-color: transparent; color: light-dark(rgb(0, 0, 0), rgb(255, 255, 255));&quot;&gt;- setPackages(int Kids,&lt;/span&gt;&lt;/div&gt;&lt;span style=&quot;text-align: left;&quot;&gt;int Adults)&lt;/span&gt;&lt;div&gt;&lt;span style=&quot;text-align: left;&quot;&gt;- setAC()&lt;/span&gt;&lt;span style=&quot;text-align: left;&quot;&gt;&lt;/span&gt;&lt;/div&gt;" style="text;html=1;align=center;verticalAlign=middle;resizable=0;points=[];autosize=1;strokeColor=none;fillColor=none;" vertex="1" parent="eB5_OxAdnuvk4AYDPjgx-11">
          <mxGeometry y="24" width="160" height="70" as="geometry" />
        </mxCell>
        <mxCell id="eB5_OxAdnuvk4AYDPjgx-21" value="Rentable&#xa;&lt;&lt;interface&gt;&gt;" style="swimlane;fontStyle=2;align=center;verticalAlign=top;childLayout=stackLayout;horizontal=1;startSize=40;horizontalStack=0;resizeParent=1;resizeLast=0;collapsible=1;marginBottom=0;rounded=0;shadow=0;strokeWidth=1;" vertex="1" parent="WIyWlLk6GJQsqaUBKTNV-1">
          <mxGeometry x="1150" y="640" width="160" height="80" as="geometry">
            <mxRectangle x="230" y="140" width="160" height="26" as="alternateBounds" />
          </mxGeometry>
        </mxCell>
        <mxCell id="eB5_OxAdnuvk4AYDPjgx-22" value="" style="line;html=1;strokeWidth=1;align=left;verticalAlign=middle;spacingTop=-1;spacingLeft=3;spacingRight=3;rotatable=0;labelPosition=right;points=[];portConstraint=eastwest;" vertex="1" parent="eB5_OxAdnuvk4AYDPjgx-21">
          <mxGeometry y="40" width="160" height="8" as="geometry" />
        </mxCell>
        <mxCell id="eB5_OxAdnuvk4AYDPjgx-23" value="+ costEquals() : double" style="text;html=1;align=center;verticalAlign=middle;resizable=0;points=[];autosize=1;strokeColor=none;fillColor=none;" vertex="1" parent="eB5_OxAdnuvk4AYDPjgx-21">
          <mxGeometry y="48" width="160" height="30" as="geometry" />
        </mxCell>
        <mxCell id="eB5_OxAdnuvk4AYDPjgx-28" style="edgeStyle=orthogonalEdgeStyle;rounded=0;orthogonalLoop=1;jettySize=auto;html=1;entryX=0.5;entryY=1;entryDx=0;entryDy=0;dashed=1;endArrow=blockThin;endFill=0;" edge="1" parent="WIyWlLk6GJQsqaUBKTNV-1" source="eB5_OxAdnuvk4AYDPjgx-24" target="eB5_OxAdnuvk4AYDPjgx-21">
          <mxGeometry relative="1" as="geometry">
            <Array as="points">
              <mxPoint x="1000" y="750" />
              <mxPoint x="1230" y="750" />
            </Array>
          </mxGeometry>
        </mxCell>
        <mxCell id="eB5_OxAdnuvk4AYDPjgx-24" value="Cottage" style="swimlane;fontStyle=0;align=center;verticalAlign=top;childLayout=stackLayout;horizontal=1;startSize=24;horizontalStack=0;resizeParent=1;resizeLast=0;collapsible=1;marginBottom=0;rounded=0;shadow=0;strokeWidth=1;" vertex="1" parent="WIyWlLk6GJQsqaUBKTNV-1">
          <mxGeometry x="630" y="846" width="160" height="114" as="geometry">
            <mxRectangle x="130" y="380" width="160" height="26" as="alternateBounds" />
          </mxGeometry>
        </mxCell>
        <mxCell id="eB5_OxAdnuvk4AYDPjgx-26" value="+ CottageType type&#xa;+ double price&#xa;" style="text;align=left;verticalAlign=top;spacingLeft=4;spacingRight=4;overflow=hidden;rotatable=0;points=[[0,0.5],[1,0.5]];portConstraint=eastwest;fontStyle=0" vertex="1" parent="eB5_OxAdnuvk4AYDPjgx-24">
          <mxGeometry y="24" width="160" height="36" as="geometry" />
        </mxCell>
        <mxCell id="eB5_OxAdnuvk4AYDPjgx-25" value="" style="line;html=1;strokeWidth=1;align=left;verticalAlign=middle;spacingTop=-1;spacingLeft=3;spacingRight=3;rotatable=0;labelPosition=right;points=[];portConstraint=eastwest;" vertex="1" parent="eB5_OxAdnuvk4AYDPjgx-24">
          <mxGeometry y="60" width="160" height="8" as="geometry" />
        </mxCell>
        <mxCell id="eB5_OxAdnuvk4AYDPjgx-27" value="- setTV()&#xa;- setFridge()" style="text;align=left;verticalAlign=top;spacingLeft=4;spacingRight=4;overflow=hidden;rotatable=0;points=[[0,0.5],[1,0.5]];portConstraint=eastwest;" vertex="1" parent="eB5_OxAdnuvk4AYDPjgx-24">
          <mxGeometry y="68" width="160" height="46" as="geometry" />
        </mxCell>
        <mxCell id="eB5_OxAdnuvk4AYDPjgx-34" style="edgeStyle=orthogonalEdgeStyle;rounded=0;orthogonalLoop=1;jettySize=auto;html=1;entryX=0.5;entryY=1;entryDx=0;entryDy=0;dashed=1;endArrow=block;endFill=0;" edge="1" parent="WIyWlLk6GJQsqaUBKTNV-1" source="eB5_OxAdnuvk4AYDPjgx-29" target="eB5_OxAdnuvk4AYDPjgx-21">
          <mxGeometry relative="1" as="geometry">
            <Array as="points">
              <mxPoint x="1500" y="750" />
              <mxPoint x="1230" y="750" />
            </Array>
          </mxGeometry>
        </mxCell>
        <mxCell id="eB5_OxAdnuvk4AYDPjgx-29" value="BaseDecorator" style="swimlane;fontStyle=0;align=center;verticalAlign=top;childLayout=stackLayout;horizontal=1;startSize=24;horizontalStack=0;resizeParent=1;resizeLast=0;collapsible=1;marginBottom=0;rounded=0;shadow=0;strokeWidth=1;" vertex="1" parent="WIyWlLk6GJQsqaUBKTNV-1">
          <mxGeometry x="1420" y="780" width="180" height="110" as="geometry">
            <mxRectangle x="130" y="380" width="160" height="26" as="alternateBounds" />
          </mxGeometry>
        </mxCell>
        <mxCell id="eB5_OxAdnuvk4AYDPjgx-30" value="- Rentable cottage&#xa;- double cost" style="text;align=left;verticalAlign=top;spacingLeft=4;spacingRight=4;overflow=hidden;rotatable=0;points=[[0,0.5],[1,0.5]];portConstraint=eastwest;fontStyle=0" vertex="1" parent="eB5_OxAdnuvk4AYDPjgx-29">
          <mxGeometry y="24" width="180" height="36" as="geometry" />
        </mxCell>
        <mxCell id="eB5_OxAdnuvk4AYDPjgx-31" value="" style="line;html=1;strokeWidth=1;align=left;verticalAlign=middle;spacingTop=-1;spacingLeft=3;spacingRight=3;rotatable=0;labelPosition=right;points=[];portConstraint=eastwest;" vertex="1" parent="eB5_OxAdnuvk4AYDPjgx-29">
          <mxGeometry y="60" width="180" height="8" as="geometry" />
        </mxCell>
        <mxCell id="eB5_OxAdnuvk4AYDPjgx-32" value="+ BaseDecorator(in: Cottage)&#xa;+ costEquals(): double" style="text;align=left;verticalAlign=top;spacingLeft=4;spacingRight=4;overflow=hidden;rotatable=0;points=[[0,0.5],[1,0.5]];portConstraint=eastwest;" vertex="1" parent="eB5_OxAdnuvk4AYDPjgx-29">
          <mxGeometry y="68" width="180" height="42" as="geometry" />
        </mxCell>
        <mxCell id="eB5_OxAdnuvk4AYDPjgx-75" style="edgeStyle=orthogonalEdgeStyle;rounded=0;orthogonalLoop=1;jettySize=auto;html=1;entryX=0;entryY=0.5;entryDx=0;entryDy=0;endArrow=block;endFill=0;" edge="1" parent="WIyWlLk6GJQsqaUBKTNV-1" source="eB5_OxAdnuvk4AYDPjgx-35" target="eB5_OxAdnuvk4AYDPjgx-32">
          <mxGeometry relative="1" as="geometry">
            <Array as="points">
              <mxPoint x="1090" y="859" />
            </Array>
          </mxGeometry>
        </mxCell>
        <mxCell id="eB5_OxAdnuvk4AYDPjgx-35" value="TVDecorator" style="swimlane;fontStyle=0;align=center;verticalAlign=top;childLayout=stackLayout;horizontal=1;startSize=24;horizontalStack=0;resizeParent=1;resizeLast=0;collapsible=1;marginBottom=0;rounded=0;shadow=0;strokeWidth=1;" vertex="1" parent="WIyWlLk6GJQsqaUBKTNV-1">
          <mxGeometry x="920" y="970" width="180" height="100" as="geometry">
            <mxRectangle x="130" y="380" width="160" height="26" as="alternateBounds" />
          </mxGeometry>
        </mxCell>
        <mxCell id="eB5_OxAdnuvk4AYDPjgx-36" value="- Rentable cottage" style="text;align=left;verticalAlign=top;spacingLeft=4;spacingRight=4;overflow=hidden;rotatable=0;points=[[0,0.5],[1,0.5]];portConstraint=eastwest;fontStyle=0" vertex="1" parent="eB5_OxAdnuvk4AYDPjgx-35">
          <mxGeometry y="24" width="180" height="26" as="geometry" />
        </mxCell>
        <mxCell id="eB5_OxAdnuvk4AYDPjgx-37" value="" style="line;html=1;strokeWidth=1;align=left;verticalAlign=middle;spacingTop=-1;spacingLeft=3;spacingRight=3;rotatable=0;labelPosition=right;points=[];portConstraint=eastwest;" vertex="1" parent="eB5_OxAdnuvk4AYDPjgx-35">
          <mxGeometry y="50" width="180" height="8" as="geometry" />
        </mxCell>
        <mxCell id="eB5_OxAdnuvk4AYDPjgx-38" value="+ TVDecorator(in: Rentable)&#xa;+ costEquals(): double" style="text;align=left;verticalAlign=top;spacingLeft=4;spacingRight=4;overflow=hidden;rotatable=0;points=[[0,0.5],[1,0.5]];portConstraint=eastwest;" vertex="1" parent="eB5_OxAdnuvk4AYDPjgx-35">
          <mxGeometry y="58" width="180" height="42" as="geometry" />
        </mxCell>
        <mxCell id="eB5_OxAdnuvk4AYDPjgx-65" style="edgeStyle=orthogonalEdgeStyle;rounded=0;orthogonalLoop=1;jettySize=auto;html=1;entryX=0;entryY=0.5;entryDx=0;entryDy=0;endArrow=block;endFill=0;" edge="1" parent="WIyWlLk6GJQsqaUBKTNV-1" source="eB5_OxAdnuvk4AYDPjgx-39" target="eB5_OxAdnuvk4AYDPjgx-32">
          <mxGeometry relative="1" as="geometry" />
        </mxCell>
        <mxCell id="eB5_OxAdnuvk4AYDPjgx-39" value="ACDecorator" style="swimlane;fontStyle=0;align=center;verticalAlign=top;childLayout=stackLayout;horizontal=1;startSize=24;horizontalStack=0;resizeParent=1;resizeLast=0;collapsible=1;marginBottom=0;rounded=0;shadow=0;strokeWidth=1;" vertex="1" parent="WIyWlLk6GJQsqaUBKTNV-1">
          <mxGeometry x="1120" y="970" width="180" height="100" as="geometry">
            <mxRectangle x="130" y="380" width="160" height="26" as="alternateBounds" />
          </mxGeometry>
        </mxCell>
        <mxCell id="eB5_OxAdnuvk4AYDPjgx-40" value="- Rentable cottage" style="text;align=left;verticalAlign=top;spacingLeft=4;spacingRight=4;overflow=hidden;rotatable=0;points=[[0,0.5],[1,0.5]];portConstraint=eastwest;fontStyle=0" vertex="1" parent="eB5_OxAdnuvk4AYDPjgx-39">
          <mxGeometry y="24" width="180" height="26" as="geometry" />
        </mxCell>
        <mxCell id="eB5_OxAdnuvk4AYDPjgx-41" value="" style="line;html=1;strokeWidth=1;align=left;verticalAlign=middle;spacingTop=-1;spacingLeft=3;spacingRight=3;rotatable=0;labelPosition=right;points=[];portConstraint=eastwest;" vertex="1" parent="eB5_OxAdnuvk4AYDPjgx-39">
          <mxGeometry y="50" width="180" height="8" as="geometry" />
        </mxCell>
        <mxCell id="eB5_OxAdnuvk4AYDPjgx-42" value="+ ACDecorator(in: Rentable)&#xa;+ costEquals(): double" style="text;align=left;verticalAlign=top;spacingLeft=4;spacingRight=4;overflow=hidden;rotatable=0;points=[[0,0.5],[1,0.5]];portConstraint=eastwest;" vertex="1" parent="eB5_OxAdnuvk4AYDPjgx-39">
          <mxGeometry y="58" width="180" height="42" as="geometry" />
        </mxCell>
        <mxCell id="eB5_OxAdnuvk4AYDPjgx-74" style="edgeStyle=orthogonalEdgeStyle;rounded=0;orthogonalLoop=1;jettySize=auto;html=1;entryX=0;entryY=0.5;entryDx=0;entryDy=0;endArrow=block;endFill=0;" edge="1" parent="WIyWlLk6GJQsqaUBKTNV-1" source="eB5_OxAdnuvk4AYDPjgx-43" target="eB5_OxAdnuvk4AYDPjgx-32">
          <mxGeometry relative="1" as="geometry" />
        </mxCell>
        <mxCell id="eB5_OxAdnuvk4AYDPjgx-43" value="FridgeDecorator" style="swimlane;fontStyle=0;align=center;verticalAlign=top;childLayout=stackLayout;horizontal=1;startSize=24;horizontalStack=0;resizeParent=1;resizeLast=0;collapsible=1;marginBottom=0;rounded=0;shadow=0;strokeWidth=1;" vertex="1" parent="WIyWlLk6GJQsqaUBKTNV-1">
          <mxGeometry x="1330" y="970" width="180" height="100" as="geometry">
            <mxRectangle x="130" y="380" width="160" height="26" as="alternateBounds" />
          </mxGeometry>
        </mxCell>
        <mxCell id="eB5_OxAdnuvk4AYDPjgx-44" value="- Rentable cottage" style="text;align=left;verticalAlign=top;spacingLeft=4;spacingRight=4;overflow=hidden;rotatable=0;points=[[0,0.5],[1,0.5]];portConstraint=eastwest;fontStyle=0" vertex="1" parent="eB5_OxAdnuvk4AYDPjgx-43">
          <mxGeometry y="24" width="180" height="26" as="geometry" />
        </mxCell>
        <mxCell id="eB5_OxAdnuvk4AYDPjgx-45" value="" style="line;html=1;strokeWidth=1;align=left;verticalAlign=middle;spacingTop=-1;spacingLeft=3;spacingRight=3;rotatable=0;labelPosition=right;points=[];portConstraint=eastwest;" vertex="1" parent="eB5_OxAdnuvk4AYDPjgx-43">
          <mxGeometry y="50" width="180" height="8" as="geometry" />
        </mxCell>
        <mxCell id="eB5_OxAdnuvk4AYDPjgx-46" value="+FridgeDecorator(in: Rentable)&#xa;+ costEquals(): double" style="text;align=left;verticalAlign=top;spacingLeft=4;spacingRight=4;overflow=hidden;rotatable=0;points=[[0,0.5],[1,0.5]];portConstraint=eastwest;" vertex="1" parent="eB5_OxAdnuvk4AYDPjgx-43">
          <mxGeometry y="58" width="180" height="42" as="geometry" />
        </mxCell>
        <mxCell id="eB5_OxAdnuvk4AYDPjgx-70" style="edgeStyle=orthogonalEdgeStyle;rounded=0;orthogonalLoop=1;jettySize=auto;html=1;entryX=1;entryY=0.5;entryDx=0;entryDy=0;endArrow=block;endFill=0;" edge="1" parent="WIyWlLk6GJQsqaUBKTNV-1" source="eB5_OxAdnuvk4AYDPjgx-47" target="eB5_OxAdnuvk4AYDPjgx-32">
          <mxGeometry relative="1" as="geometry" />
        </mxCell>
        <mxCell id="eB5_OxAdnuvk4AYDPjgx-47" value="FunPackageDecorator" style="swimlane;fontStyle=0;align=center;verticalAlign=top;childLayout=stackLayout;horizontal=1;startSize=24;horizontalStack=0;resizeParent=1;resizeLast=0;collapsible=1;marginBottom=0;rounded=0;shadow=0;strokeWidth=1;" vertex="1" parent="WIyWlLk6GJQsqaUBKTNV-1">
          <mxGeometry x="1540" y="970" width="210" height="100" as="geometry">
            <mxRectangle x="130" y="380" width="160" height="26" as="alternateBounds" />
          </mxGeometry>
        </mxCell>
        <mxCell id="eB5_OxAdnuvk4AYDPjgx-48" value="- Rentable cottage" style="text;align=left;verticalAlign=top;spacingLeft=4;spacingRight=4;overflow=hidden;rotatable=0;points=[[0,0.5],[1,0.5]];portConstraint=eastwest;fontStyle=0" vertex="1" parent="eB5_OxAdnuvk4AYDPjgx-47">
          <mxGeometry y="24" width="210" height="26" as="geometry" />
        </mxCell>
        <mxCell id="eB5_OxAdnuvk4AYDPjgx-49" value="" style="line;html=1;strokeWidth=1;align=left;verticalAlign=middle;spacingTop=-1;spacingLeft=3;spacingRight=3;rotatable=0;labelPosition=right;points=[];portConstraint=eastwest;" vertex="1" parent="eB5_OxAdnuvk4AYDPjgx-47">
          <mxGeometry y="50" width="210" height="8" as="geometry" />
        </mxCell>
        <mxCell id="eB5_OxAdnuvk4AYDPjgx-50" value="+ FunPackageDecorator(in: Rentable)&#xa;+ costEquals(): double" style="text;align=left;verticalAlign=top;spacingLeft=4;spacingRight=4;overflow=hidden;rotatable=0;points=[[0,0.5],[1,0.5]];portConstraint=eastwest;" vertex="1" parent="eB5_OxAdnuvk4AYDPjgx-47">
          <mxGeometry y="58" width="210" height="42" as="geometry" />
        </mxCell>
        <mxCell id="eB5_OxAdnuvk4AYDPjgx-71" style="edgeStyle=orthogonalEdgeStyle;rounded=0;orthogonalLoop=1;jettySize=auto;html=1;entryX=1;entryY=0.5;entryDx=0;entryDy=0;endArrow=block;endFill=0;" edge="1" parent="WIyWlLk6GJQsqaUBKTNV-1" source="eB5_OxAdnuvk4AYDPjgx-51" target="eB5_OxAdnuvk4AYDPjgx-32">
          <mxGeometry relative="1" as="geometry" />
        </mxCell>
        <mxCell id="eB5_OxAdnuvk4AYDPjgx-51" value="FoodPackageDecorator" style="swimlane;fontStyle=0;align=center;verticalAlign=top;childLayout=stackLayout;horizontal=1;startSize=24;horizontalStack=0;resizeParent=1;resizeLast=0;collapsible=1;marginBottom=0;rounded=0;shadow=0;strokeWidth=1;" vertex="1" parent="WIyWlLk6GJQsqaUBKTNV-1">
          <mxGeometry x="1771" y="970" width="221" height="100" as="geometry">
            <mxRectangle x="130" y="380" width="160" height="26" as="alternateBounds" />
          </mxGeometry>
        </mxCell>
        <mxCell id="eB5_OxAdnuvk4AYDPjgx-52" value="- Rentable cottage" style="text;align=left;verticalAlign=top;spacingLeft=4;spacingRight=4;overflow=hidden;rotatable=0;points=[[0,0.5],[1,0.5]];portConstraint=eastwest;fontStyle=0" vertex="1" parent="eB5_OxAdnuvk4AYDPjgx-51">
          <mxGeometry y="24" width="221" height="26" as="geometry" />
        </mxCell>
        <mxCell id="eB5_OxAdnuvk4AYDPjgx-53" value="" style="line;html=1;strokeWidth=1;align=left;verticalAlign=middle;spacingTop=-1;spacingLeft=3;spacingRight=3;rotatable=0;labelPosition=right;points=[];portConstraint=eastwest;" vertex="1" parent="eB5_OxAdnuvk4AYDPjgx-51">
          <mxGeometry y="50" width="221" height="8" as="geometry" />
        </mxCell>
        <mxCell id="eB5_OxAdnuvk4AYDPjgx-54" value="+ FoodPackageDecorator(in: Rentable)&#xa;+ costEquals(): double" style="text;align=left;verticalAlign=top;spacingLeft=4;spacingRight=4;overflow=hidden;rotatable=0;points=[[0,0.5],[1,0.5]];portConstraint=eastwest;" vertex="1" parent="eB5_OxAdnuvk4AYDPjgx-51">
          <mxGeometry y="58" width="221" height="42" as="geometry" />
        </mxCell>
        <mxCell id="eB5_OxAdnuvk4AYDPjgx-72" style="edgeStyle=orthogonalEdgeStyle;rounded=0;orthogonalLoop=1;jettySize=auto;html=1;entryX=1;entryY=0.5;entryDx=0;entryDy=0;endArrow=block;endFill=0;" edge="1" parent="WIyWlLk6GJQsqaUBKTNV-1" source="eB5_OxAdnuvk4AYDPjgx-55" target="eB5_OxAdnuvk4AYDPjgx-32">
          <mxGeometry relative="1" as="geometry" />
        </mxCell>
        <mxCell id="eB5_OxAdnuvk4AYDPjgx-55" value="KidsPackageDecorator" style="swimlane;fontStyle=0;align=center;verticalAlign=top;childLayout=stackLayout;horizontal=1;startSize=24;horizontalStack=0;resizeParent=1;resizeLast=0;collapsible=1;marginBottom=0;rounded=0;shadow=0;strokeWidth=1;" vertex="1" parent="WIyWlLk6GJQsqaUBKTNV-1">
          <mxGeometry x="2010" y="970" width="210" height="100" as="geometry">
            <mxRectangle x="130" y="380" width="160" height="26" as="alternateBounds" />
          </mxGeometry>
        </mxCell>
        <mxCell id="eB5_OxAdnuvk4AYDPjgx-56" value="- Rentable cottage" style="text;align=left;verticalAlign=top;spacingLeft=4;spacingRight=4;overflow=hidden;rotatable=0;points=[[0,0.5],[1,0.5]];portConstraint=eastwest;fontStyle=0" vertex="1" parent="eB5_OxAdnuvk4AYDPjgx-55">
          <mxGeometry y="24" width="210" height="26" as="geometry" />
        </mxCell>
        <mxCell id="eB5_OxAdnuvk4AYDPjgx-57" value="" style="line;html=1;strokeWidth=1;align=left;verticalAlign=middle;spacingTop=-1;spacingLeft=3;spacingRight=3;rotatable=0;labelPosition=right;points=[];portConstraint=eastwest;" vertex="1" parent="eB5_OxAdnuvk4AYDPjgx-55">
          <mxGeometry y="50" width="210" height="8" as="geometry" />
        </mxCell>
        <mxCell id="eB5_OxAdnuvk4AYDPjgx-58" value="+ KidsPackageDecorator(in: Rentable)&#xa;+ costEquals(): double" style="text;align=left;verticalAlign=top;spacingLeft=4;spacingRight=4;overflow=hidden;rotatable=0;points=[[0,0.5],[1,0.5]];portConstraint=eastwest;" vertex="1" parent="eB5_OxAdnuvk4AYDPjgx-55">
          <mxGeometry y="58" width="210" height="42" as="geometry" />
        </mxCell>
        <mxCell id="eB5_OxAdnuvk4AYDPjgx-73" style="edgeStyle=orthogonalEdgeStyle;rounded=0;orthogonalLoop=1;jettySize=auto;html=1;entryX=1;entryY=0.5;entryDx=0;entryDy=0;endArrow=block;endFill=0;" edge="1" parent="WIyWlLk6GJQsqaUBKTNV-1" source="eB5_OxAdnuvk4AYDPjgx-59" target="eB5_OxAdnuvk4AYDPjgx-32">
          <mxGeometry relative="1" as="geometry" />
        </mxCell>
        <mxCell id="eB5_OxAdnuvk4AYDPjgx-59" value="CleanPackageDecorator" style="swimlane;fontStyle=0;align=center;verticalAlign=top;childLayout=stackLayout;horizontal=1;startSize=24;horizontalStack=0;resizeParent=1;resizeLast=0;collapsible=1;marginBottom=0;rounded=0;shadow=0;strokeWidth=1;" vertex="1" parent="WIyWlLk6GJQsqaUBKTNV-1">
          <mxGeometry x="2238" y="970" width="220" height="100" as="geometry">
            <mxRectangle x="130" y="380" width="160" height="26" as="alternateBounds" />
          </mxGeometry>
        </mxCell>
        <mxCell id="eB5_OxAdnuvk4AYDPjgx-60" value="- Rentable cottage" style="text;align=left;verticalAlign=top;spacingLeft=4;spacingRight=4;overflow=hidden;rotatable=0;points=[[0,0.5],[1,0.5]];portConstraint=eastwest;fontStyle=0" vertex="1" parent="eB5_OxAdnuvk4AYDPjgx-59">
          <mxGeometry y="24" width="220" height="26" as="geometry" />
        </mxCell>
        <mxCell id="eB5_OxAdnuvk4AYDPjgx-61" value="" style="line;html=1;strokeWidth=1;align=left;verticalAlign=middle;spacingTop=-1;spacingLeft=3;spacingRight=3;rotatable=0;labelPosition=right;points=[];portConstraint=eastwest;" vertex="1" parent="eB5_OxAdnuvk4AYDPjgx-59">
          <mxGeometry y="50" width="220" height="8" as="geometry" />
        </mxCell>
        <mxCell id="eB5_OxAdnuvk4AYDPjgx-62" value="+ CleanPackageDecorator(in: Rentable)&#xa;+ costEquals(): double" style="text;align=left;verticalAlign=top;spacingLeft=4;spacingRight=4;overflow=hidden;rotatable=0;points=[[0,0.5],[1,0.5]];portConstraint=eastwest;" vertex="1" parent="eB5_OxAdnuvk4AYDPjgx-59">
          <mxGeometry y="58" width="220" height="42" as="geometry" />
        </mxCell>
        <mxCell id="eB5_OxAdnuvk4AYDPjgx-80" style="edgeStyle=orthogonalEdgeStyle;rounded=0;orthogonalLoop=1;jettySize=auto;html=1;entryX=0;entryY=0.5;entryDx=0;entryDy=0;endArrow=diamondThin;endFill=0;" edge="1" parent="WIyWlLk6GJQsqaUBKTNV-1" source="eB5_OxAdnuvk4AYDPjgx-76" target="eB5_OxAdnuvk4AYDPjgx-26">
          <mxGeometry relative="1" as="geometry" />
        </mxCell>
        <mxCell id="eB5_OxAdnuvk4AYDPjgx-76" value="CottageType" style="swimlane;fontStyle=0;align=center;verticalAlign=top;childLayout=stackLayout;horizontal=1;startSize=24;horizontalStack=0;resizeParent=1;resizeLast=0;collapsible=1;marginBottom=0;rounded=0;shadow=0;strokeWidth=1;" vertex="1" parent="WIyWlLk6GJQsqaUBKTNV-1">
          <mxGeometry x="450" y="846" width="160" height="50" as="geometry">
            <mxRectangle x="130" y="380" width="160" height="26" as="alternateBounds" />
          </mxGeometry>
        </mxCell>
        <mxCell id="eB5_OxAdnuvk4AYDPjgx-77" value="+ int maxCapacity" style="text;align=left;verticalAlign=top;spacingLeft=4;spacingRight=4;overflow=hidden;rotatable=0;points=[[0,0.5],[1,0.5]];portConstraint=eastwest;fontStyle=0" vertex="1" parent="eB5_OxAdnuvk4AYDPjgx-76">
          <mxGeometry y="24" width="160" height="26" as="geometry" />
        </mxCell>
        <mxCell id="eB5_OxAdnuvk4AYDPjgx-89" style="edgeStyle=orthogonalEdgeStyle;rounded=0;orthogonalLoop=1;jettySize=auto;html=1;entryX=0;entryY=0.5;entryDx=0;entryDy=0;endArrow=block;endFill=0;" edge="1" parent="WIyWlLk6GJQsqaUBKTNV-1" source="eB5_OxAdnuvk4AYDPjgx-81" target="eB5_OxAdnuvk4AYDPjgx-27">
          <mxGeometry relative="1" as="geometry" />
        </mxCell>
        <mxCell id="eB5_OxAdnuvk4AYDPjgx-81" value="BasicCottage" style="swimlane;fontStyle=0;align=center;verticalAlign=top;childLayout=stackLayout;horizontal=1;startSize=24;horizontalStack=0;resizeParent=1;resizeLast=0;collapsible=1;marginBottom=0;rounded=0;shadow=0;strokeWidth=1;" vertex="1" parent="WIyWlLk6GJQsqaUBKTNV-1">
          <mxGeometry x="450" y="990" width="160" height="104" as="geometry">
            <mxRectangle x="130" y="380" width="160" height="26" as="alternateBounds" />
          </mxGeometry>
        </mxCell>
        <mxCell id="eB5_OxAdnuvk4AYDPjgx-82" value="+ CottageType type&#xa;" style="text;align=left;verticalAlign=top;spacingLeft=4;spacingRight=4;overflow=hidden;rotatable=0;points=[[0,0.5],[1,0.5]];portConstraint=eastwest;fontStyle=0" vertex="1" parent="eB5_OxAdnuvk4AYDPjgx-81">
          <mxGeometry y="24" width="160" height="26" as="geometry" />
        </mxCell>
        <mxCell id="eB5_OxAdnuvk4AYDPjgx-83" value="" style="line;html=1;strokeWidth=1;align=left;verticalAlign=middle;spacingTop=-1;spacingLeft=3;spacingRight=3;rotatable=0;labelPosition=right;points=[];portConstraint=eastwest;" vertex="1" parent="eB5_OxAdnuvk4AYDPjgx-81">
          <mxGeometry y="50" width="160" height="8" as="geometry" />
        </mxCell>
        <mxCell id="eB5_OxAdnuvk4AYDPjgx-84" value="- setTV()&#xa;- setFridge()" style="text;align=left;verticalAlign=top;spacingLeft=4;spacingRight=4;overflow=hidden;rotatable=0;points=[[0,0.5],[1,0.5]];portConstraint=eastwest;" vertex="1" parent="eB5_OxAdnuvk4AYDPjgx-81">
          <mxGeometry y="58" width="160" height="46" as="geometry" />
        </mxCell>
        <mxCell id="eB5_OxAdnuvk4AYDPjgx-90" style="edgeStyle=orthogonalEdgeStyle;rounded=0;orthogonalLoop=1;jettySize=auto;html=1;entryX=1;entryY=0.5;entryDx=0;entryDy=0;endArrow=block;endFill=0;" edge="1" parent="WIyWlLk6GJQsqaUBKTNV-1" source="eB5_OxAdnuvk4AYDPjgx-85" target="eB5_OxAdnuvk4AYDPjgx-27">
          <mxGeometry relative="1" as="geometry" />
        </mxCell>
        <mxCell id="eB5_OxAdnuvk4AYDPjgx-85" value="PremiumCottage" style="swimlane;fontStyle=0;align=center;verticalAlign=top;childLayout=stackLayout;horizontal=1;startSize=24;horizontalStack=0;resizeParent=1;resizeLast=0;collapsible=1;marginBottom=0;rounded=0;shadow=0;strokeWidth=1;" vertex="1" parent="WIyWlLk6GJQsqaUBKTNV-1">
          <mxGeometry x="710" y="990" width="160" height="104" as="geometry">
            <mxRectangle x="130" y="380" width="160" height="26" as="alternateBounds" />
          </mxGeometry>
        </mxCell>
        <mxCell id="eB5_OxAdnuvk4AYDPjgx-86" value="+ CottageType type&#xa;" style="text;align=left;verticalAlign=top;spacingLeft=4;spacingRight=4;overflow=hidden;rotatable=0;points=[[0,0.5],[1,0.5]];portConstraint=eastwest;fontStyle=0" vertex="1" parent="eB5_OxAdnuvk4AYDPjgx-85">
          <mxGeometry y="24" width="160" height="26" as="geometry" />
        </mxCell>
        <mxCell id="eB5_OxAdnuvk4AYDPjgx-87" value="" style="line;html=1;strokeWidth=1;align=left;verticalAlign=middle;spacingTop=-1;spacingLeft=3;spacingRight=3;rotatable=0;labelPosition=right;points=[];portConstraint=eastwest;" vertex="1" parent="eB5_OxAdnuvk4AYDPjgx-85">
          <mxGeometry y="50" width="160" height="8" as="geometry" />
        </mxCell>
        <mxCell id="eB5_OxAdnuvk4AYDPjgx-88" value="- setTV()&#xa;- setFridge()" style="text;align=left;verticalAlign=top;spacingLeft=4;spacingRight=4;overflow=hidden;rotatable=0;points=[[0,0.5],[1,0.5]];portConstraint=eastwest;" vertex="1" parent="eB5_OxAdnuvk4AYDPjgx-85">
          <mxGeometry y="58" width="160" height="46" as="geometry" />
        </mxCell>
        <mxCell id="eB5_OxAdnuvk4AYDPjgx-93" style="edgeStyle=orthogonalEdgeStyle;rounded=0;orthogonalLoop=1;jettySize=auto;html=1;entryX=0;entryY=0.5;entryDx=0;entryDy=0;endArrow=none;endFill=0;startArrow=classicThin;startFill=0;" edge="1" parent="WIyWlLk6GJQsqaUBKTNV-1" source="eB5_OxAdnuvk4AYDPjgx-17" target="eB5_OxAdnuvk4AYDPjgx-30">
          <mxGeometry relative="1" as="geometry" />
        </mxCell>
        <mxCell id="eB5_OxAdnuvk4AYDPjgx-94" style="edgeStyle=orthogonalEdgeStyle;rounded=0;orthogonalLoop=1;jettySize=auto;html=1;entryX=0.25;entryY=0;entryDx=0;entryDy=0;startArrow=open;startFill=0;endArrow=none;" edge="1" parent="WIyWlLk6GJQsqaUBKTNV-1" source="zkfFHV4jXpPFQw0GAbJ--11" target="eB5_OxAdnuvk4AYDPjgx-39">
          <mxGeometry relative="1" as="geometry">
            <Array as="points">
              <mxPoint x="1130" y="730" />
              <mxPoint x="1130" y="950" />
              <mxPoint x="1165" y="950" />
            </Array>
          </mxGeometry>
        </mxCell>
        <mxCell id="eB5_OxAdnuvk4AYDPjgx-101" value="Reservation" style="swimlane;fontStyle=0;align=center;verticalAlign=top;childLayout=stackLayout;horizontal=1;startSize=24;horizontalStack=0;resizeParent=1;resizeLast=0;collapsible=1;marginBottom=0;rounded=0;shadow=0;strokeWidth=1;" vertex="1" parent="WIyWlLk6GJQsqaUBKTNV-1">
          <mxGeometry x="970" y="450" width="180" height="140" as="geometry">
            <mxRectangle x="130" y="380" width="160" height="26" as="alternateBounds" />
          </mxGeometry>
        </mxCell>
        <mxCell id="eB5_OxAdnuvk4AYDPjgx-102" value="- int Kids&#xa;- int Adults&#xa;- Rentable Cottage&#xa;- int Price" style="text;align=left;verticalAlign=top;spacingLeft=4;spacingRight=4;overflow=hidden;rotatable=0;points=[[0,0.5],[1,0.5]];portConstraint=eastwest;fontStyle=0" vertex="1" parent="eB5_OxAdnuvk4AYDPjgx-101">
          <mxGeometry y="24" width="180" height="66" as="geometry" />
        </mxCell>
        <mxCell id="eB5_OxAdnuvk4AYDPjgx-103" value="" style="line;html=1;strokeWidth=1;align=left;verticalAlign=middle;spacingTop=-1;spacingLeft=3;spacingRight=3;rotatable=0;labelPosition=right;points=[];portConstraint=eastwest;" vertex="1" parent="eB5_OxAdnuvk4AYDPjgx-101">
          <mxGeometry y="90" width="180" height="8" as="geometry" />
        </mxCell>
        <mxCell id="eB5_OxAdnuvk4AYDPjgx-104" value="+ priceEquals(): double" style="text;align=left;verticalAlign=top;spacingLeft=4;spacingRight=4;overflow=hidden;rotatable=0;points=[[0,0.5],[1,0.5]];portConstraint=eastwest;" vertex="1" parent="eB5_OxAdnuvk4AYDPjgx-101">
          <mxGeometry y="98" width="180" height="42" as="geometry" />
        </mxCell>
        <mxCell id="eB5_OxAdnuvk4AYDPjgx-106" value="Moderator" style="swimlane;fontStyle=0;align=center;verticalAlign=top;childLayout=stackLayout;horizontal=1;startSize=24;horizontalStack=0;resizeParent=1;resizeLast=0;collapsible=1;marginBottom=0;rounded=0;shadow=0;strokeWidth=1;" vertex="1" parent="WIyWlLk6GJQsqaUBKTNV-1">
          <mxGeometry x="350" y="390" width="260" height="210" as="geometry">
            <mxRectangle x="130" y="380" width="160" height="26" as="alternateBounds" />
          </mxGeometry>
        </mxCell>
        <mxCell id="eB5_OxAdnuvk4AYDPjgx-107" value="- List&lt;Integer&gt; rentableCapacities&#xa;- int WinterCoefficient&#xa;- int SummerCoefficient&#xa;- instance: Moderator" style="text;align=left;verticalAlign=top;spacingLeft=4;spacingRight=4;overflow=hidden;rotatable=0;points=[[0,0.5],[1,0.5]];portConstraint=eastwest;fontStyle=0" vertex="1" parent="eB5_OxAdnuvk4AYDPjgx-106">
          <mxGeometry y="24" width="260" height="66" as="geometry" />
        </mxCell>
        <mxCell id="eB5_OxAdnuvk4AYDPjgx-108" value="" style="line;html=1;strokeWidth=1;align=left;verticalAlign=middle;spacingTop=-1;spacingLeft=3;spacingRight=3;rotatable=0;labelPosition=right;points=[];portConstraint=eastwest;" vertex="1" parent="eB5_OxAdnuvk4AYDPjgx-106">
          <mxGeometry y="90" width="260" height="8" as="geometry" />
        </mxCell>
        <mxCell id="eB5_OxAdnuvk4AYDPjgx-109" value="+ setWinterCoefficient&#xa;+ setSummerCoefficient&#xa;+ addCapacity&#xa;+ removeCapacity&#xa;+ calculatePrice(in double basePrice, coefficient)&#xa;: double&#xa;+ getInstance(): Moderator" style="text;align=left;verticalAlign=top;spacingLeft=4;spacingRight=4;overflow=hidden;rotatable=0;points=[[0,0.5],[1,0.5]];portConstraint=eastwest;" vertex="1" parent="eB5_OxAdnuvk4AYDPjgx-106">
          <mxGeometry y="98" width="260" height="112" as="geometry" />
        </mxCell>
        <mxCell id="eB5_OxAdnuvk4AYDPjgx-135" style="edgeStyle=orthogonalEdgeStyle;rounded=0;orthogonalLoop=1;jettySize=auto;html=1;entryX=0.75;entryY=0;entryDx=0;entryDy=0;endArrow=diamondThin;endFill=1;" edge="1" parent="WIyWlLk6GJQsqaUBKTNV-1" source="eB5_OxAdnuvk4AYDPjgx-110" target="eB5_OxAdnuvk4AYDPjgx-106">
          <mxGeometry relative="1" as="geometry" />
        </mxCell>
        <mxCell id="eB5_OxAdnuvk4AYDPjgx-110" value="Discounter" style="swimlane;fontStyle=0;align=center;verticalAlign=top;childLayout=stackLayout;horizontal=1;startSize=24;horizontalStack=0;resizeParent=1;resizeLast=0;collapsible=1;marginBottom=0;rounded=0;shadow=0;strokeWidth=1;" vertex="1" parent="WIyWlLk6GJQsqaUBKTNV-1">
          <mxGeometry x="560" y="170" width="200" height="66" as="geometry">
            <mxRectangle x="130" y="380" width="160" height="26" as="alternateBounds" />
          </mxGeometry>
        </mxCell>
        <mxCell id="eB5_OxAdnuvk4AYDPjgx-113" value="+ applyDiscount(in double Base)&#xa;: double" style="text;align=left;verticalAlign=top;spacingLeft=4;spacingRight=4;overflow=hidden;rotatable=0;points=[[0,0.5],[1,0.5]];portConstraint=eastwest;" vertex="1" parent="eB5_OxAdnuvk4AYDPjgx-110">
          <mxGeometry y="24" width="200" height="42" as="geometry" />
        </mxCell>
        <mxCell id="eB5_OxAdnuvk4AYDPjgx-114" value="Calculator&#xa;&lt;&lt;interface&gt;&gt;" style="swimlane;fontStyle=2;align=center;verticalAlign=top;childLayout=stackLayout;horizontal=1;startSize=40;horizontalStack=0;resizeParent=1;resizeLast=0;collapsible=1;marginBottom=0;rounded=0;shadow=0;strokeWidth=1;" vertex="1" parent="WIyWlLk6GJQsqaUBKTNV-1">
          <mxGeometry x="170" y="50" width="180" height="80" as="geometry">
            <mxRectangle x="130" y="380" width="160" height="26" as="alternateBounds" />
          </mxGeometry>
        </mxCell>
        <mxCell id="eB5_OxAdnuvk4AYDPjgx-115" value="# calculatePrice(in double Base):&#xa;out double" style="text;align=center;verticalAlign=top;spacingLeft=4;spacingRight=4;overflow=hidden;rotatable=0;points=[[0,0.5],[1,0.5]];portConstraint=eastwest;fontStyle=0" vertex="1" parent="eB5_OxAdnuvk4AYDPjgx-114">
          <mxGeometry y="40" width="180" height="30" as="geometry" />
        </mxCell>
        <mxCell id="eB5_OxAdnuvk4AYDPjgx-118" style="edgeStyle=orthogonalEdgeStyle;rounded=0;orthogonalLoop=1;jettySize=auto;html=1;entryX=0;entryY=0.5;entryDx=0;entryDy=0;strokeColor=default;" edge="1" parent="WIyWlLk6GJQsqaUBKTNV-1" source="eB5_OxAdnuvk4AYDPjgx-107" target="zkfFHV4jXpPFQw0GAbJ--13">
          <mxGeometry relative="1" as="geometry" />
        </mxCell>
        <mxCell id="eB5_OxAdnuvk4AYDPjgx-132" style="edgeStyle=orthogonalEdgeStyle;rounded=0;orthogonalLoop=1;jettySize=auto;html=1;entryX=0.25;entryY=0;entryDx=0;entryDy=0;endArrow=diamondThin;endFill=1;" edge="1" parent="WIyWlLk6GJQsqaUBKTNV-1" source="eB5_OxAdnuvk4AYDPjgx-127" target="eB5_OxAdnuvk4AYDPjgx-106">
          <mxGeometry relative="1" as="geometry">
            <Array as="points">
              <mxPoint x="140" y="310" />
              <mxPoint x="415" y="310" />
            </Array>
          </mxGeometry>
        </mxCell>
        <mxCell id="eB5_OxAdnuvk4AYDPjgx-133" style="edgeStyle=orthogonalEdgeStyle;rounded=0;orthogonalLoop=1;jettySize=auto;html=1;entryX=0.5;entryY=1;entryDx=0;entryDy=0;endArrow=block;endFill=0;dashed=1;" edge="1" parent="WIyWlLk6GJQsqaUBKTNV-1" source="eB5_OxAdnuvk4AYDPjgx-127" target="eB5_OxAdnuvk4AYDPjgx-114">
          <mxGeometry relative="1" as="geometry" />
        </mxCell>
        <mxCell id="eB5_OxAdnuvk4AYDPjgx-127" value="WinterCalculator" style="swimlane;fontStyle=0;align=center;verticalAlign=top;childLayout=stackLayout;horizontal=1;startSize=30;horizontalStack=0;resizeParent=1;resizeLast=0;collapsible=1;marginBottom=0;rounded=0;shadow=0;strokeWidth=1;" vertex="1" parent="WIyWlLk6GJQsqaUBKTNV-1">
          <mxGeometry x="50" y="170" width="180" height="70" as="geometry">
            <mxRectangle x="130" y="380" width="160" height="26" as="alternateBounds" />
          </mxGeometry>
        </mxCell>
        <mxCell id="eB5_OxAdnuvk4AYDPjgx-128" value="+ calculatePrice(in double Base)&#xa;: double" style="text;align=center;verticalAlign=top;spacingLeft=4;spacingRight=4;overflow=hidden;rotatable=0;points=[[0,0.5],[1,0.5]];portConstraint=eastwest;fontStyle=0" vertex="1" parent="eB5_OxAdnuvk4AYDPjgx-127">
          <mxGeometry y="30" width="180" height="40" as="geometry" />
        </mxCell>
        <mxCell id="eB5_OxAdnuvk4AYDPjgx-131" style="edgeStyle=orthogonalEdgeStyle;rounded=0;orthogonalLoop=1;jettySize=auto;html=1;entryX=0.25;entryY=0;entryDx=0;entryDy=0;endArrow=diamondThin;endFill=1;" edge="1" parent="WIyWlLk6GJQsqaUBKTNV-1" source="eB5_OxAdnuvk4AYDPjgx-129" target="eB5_OxAdnuvk4AYDPjgx-106">
          <mxGeometry relative="1" as="geometry">
            <Array as="points">
              <mxPoint x="390" y="310" />
              <mxPoint x="415" y="310" />
            </Array>
          </mxGeometry>
        </mxCell>
        <mxCell id="eB5_OxAdnuvk4AYDPjgx-134" style="edgeStyle=orthogonalEdgeStyle;rounded=0;orthogonalLoop=1;jettySize=auto;html=1;entryX=0.5;entryY=1;entryDx=0;entryDy=0;endArrow=block;endFill=0;dashed=1;" edge="1" parent="WIyWlLk6GJQsqaUBKTNV-1" source="eB5_OxAdnuvk4AYDPjgx-129" target="eB5_OxAdnuvk4AYDPjgx-114">
          <mxGeometry relative="1" as="geometry" />
        </mxCell>
        <mxCell id="eB5_OxAdnuvk4AYDPjgx-129" value="SummerCalculator" style="swimlane;fontStyle=0;align=center;verticalAlign=top;childLayout=stackLayout;horizontal=1;startSize=30;horizontalStack=0;resizeParent=1;resizeLast=0;collapsible=1;marginBottom=0;rounded=0;shadow=0;strokeWidth=1;" vertex="1" parent="WIyWlLk6GJQsqaUBKTNV-1">
          <mxGeometry x="300" y="170" width="180" height="70" as="geometry">
            <mxRectangle x="130" y="380" width="160" height="26" as="alternateBounds" />
          </mxGeometry>
        </mxCell>
        <mxCell id="eB5_OxAdnuvk4AYDPjgx-130" value="+ calculatePrice(n double Base)&#xa;: double" style="text;align=center;verticalAlign=top;spacingLeft=4;spacingRight=4;overflow=hidden;rotatable=0;points=[[0,0.5],[1,0.5]];portConstraint=eastwest;fontStyle=0" vertex="1" parent="eB5_OxAdnuvk4AYDPjgx-129">
          <mxGeometry y="30" width="180" height="40" as="geometry" />
        </mxCell>
        <mxCell id="eB5_OxAdnuvk4AYDPjgx-136" style="edgeStyle=orthogonalEdgeStyle;rounded=0;orthogonalLoop=1;jettySize=auto;html=1;entryX=0.5;entryY=0;entryDx=0;entryDy=0;endArrow=open;endFill=0;" edge="1" parent="WIyWlLk6GJQsqaUBKTNV-1" source="eB5_OxAdnuvk4AYDPjgx-1" target="zkfFHV4jXpPFQw0GAbJ--6">
          <mxGeometry relative="1" as="geometry" />
        </mxCell>
        <mxCell id="eB5_OxAdnuvk4AYDPjgx-137" value="&lt;b&gt;Kajetan Plewa&lt;/b&gt;" style="text;strokeColor=none;fillColor=none;align=left;verticalAlign=middle;spacingLeft=4;spacingRight=4;overflow=hidden;points=[[0,0.5],[1,0.5]];portConstraint=eastwest;rotatable=0;whiteSpace=wrap;html=1;" vertex="1" parent="WIyWlLk6GJQsqaUBKTNV-1">
          <mxGeometry x="710" y="50" width="80" height="30" as="geometry" />
        </mxCell>
      </root>
    </mxGraphModel>
  </diagram>
</mxfile>
